<?xml version="1.0" encoding="UTF-8" standalone="no"?><!DOCTYPE svg PUBLIC "-//W3C//DTD SVG 1.1//EN" "http://www.w3.org/Graphics/SVG/1.1/DTD/svg11.dtd"><svg width="100%" height="100%" viewBox="0 0 1030 1025" version="1.1" xmlns="http://www.w3.org/2000/svg" xmlns:xlink="http://www.w3.org/1999/xlink" xml:space="preserve" xmlns:serif="http://www.serif.com/" style="fill-rule:evenodd;clip-rule:evenodd;stroke-linecap:round;stroke-miterlimit:10;"><g><g><g id="Layer_1"><g><clipPath id="_clip1"><path d="M1024.125,144.246l0,735.833c0,78.188 -63.479,141.667 -141.667,141.667l-735.833,0c-78.188,0 -141.667,-63.479 -141.667,-141.667l0,-735.833c0,-78.188 63.479,-141.667 141.667,-141.667l735.833,0c78.188,0 141.667,63.479 141.667,141.667Z"/></clipPath><g clip-path="url(#_clip1)"><g><rect x="-148.792" y="-241.421" width="2879.167" height="2158.333" style="fill:#011431;"/><path d="M502.167,299.037c0,0 46.083,-27.667 76.208,16.083" style="fill:none;fill-rule:nonzero;stroke:#fff;stroke-width:25px;"/><path d="M656.917,274.787c62.458,100.458 -21.708,161.083 -32.583,247.958c-10.875,86.875 46.167,124.875 65.167,133.042c19,8.125 73.292,21.708 133.042,-32.583c59.708,-54.292 116.75,-185.708 114.042,-212.833c-2.708,-27.167 -52.833,-51.583 -80,-76c-27.167,-24.417 -27.167,-51.583 -57,-84.167c-29.875,-32.583 -95.208,-47.125 -203.833,-41.708c-108.583,5.417 -143.875,45.25 -173.75,94.125c-12.917,21.125 -127.5,58.375 -150.917,66.875c-16.917,6.167 -140.375,31.292 -144.083,45.333c-22.375,15.958 35.833,160.167 159.833,170.333c162.875,13.375 297.375,-47.625 212.708,296.208c-23,93.458 5.167,178.167 52.542,242.417c51.792,70.25 138.833,122.5 194.5,128.625" style="fill:none;fill-rule:nonzero;stroke:#fff;stroke-width:41.67px;"/><circle cx="521.75" cy="353.871" r="23.875" style="fill:#fff;"/><path d="M602.083,1179.162c14.5,42.292 42.667,189.917 42.667,189.917" style="fill:none;fill-rule:nonzero;stroke:#fff;stroke-width:41.67px;"/><path d="M760.083,1152.787c95.667,95.667 98.417,230.583 98.417,230.583" style="fill:none;fill-rule:nonzero;stroke:#fff;stroke-width:41.67px;"/><path d="M2175.375,1379.579c0,0 -44.5,5.417 -67.708,43.542c-12,19.708 -20.625,40.875 -14.667,55.792c7.792,13.25 24.833,11.458 39.292,13.083c17.083,0.917 66.958,3.125 86.958,-3.917c62.875,-22.167 78.875,-248.417 71.208,-278.875c-8.708,-34.625 -53.833,-69.333 -75.833,-108.583c-25.958,-44.083 -34.25,-103.375 -46.125,-151.583c-106.25,-432 -615,-281.708 -805.375,-259.542c-121.542,14.167 -335.375,22.917 -419.167,-112.292" style="fill:none;fill-rule:nonzero;stroke:#fff;stroke-width:41.67px;"/><path d="M858.25,1383.496c0,0 -37.542,10.5 -55.208,39.375c-12.042,19.708 -20.625,40.875 -14.667,55.792c7.792,13.25 39.292,13.083 39.292,13.083c0,0 34.25,1.417 61.792,0c27.542,-1.417 34.042,-2.542 49.333,-21.208c0,0 18.375,-18.625 26.083,-65.667c7.708,-47.042 23.5,-150.375 27.583,-147.667c166.75,10.542 292.958,-17.125 401.958,-59.625c105.708,-41.208 189.5,-105.458 261,-145.167c71.5,-39.708 149.083,-58.958 193.417,-22.292c20.917,17.333 88.208,110.25 223.125,175.625c65.75,31.875 108.375,105.458 104.958,167.25" style="fill:none;fill-rule:nonzero;stroke:#fff;stroke-width:41.67px;"/><g><g><path d="M509.417,754.787c0,0 -76.917,63.875 -119.667,54.083c-42.75,-9.792 -7.292,-164.625 35.458,-154.875c42.75,9.792 84.208,100.75 84.208,100.75l0,0.042Z" style="fill:#a1520f;fill-rule:nonzero;stroke:#fff;stroke-width:25px;"/><path d="M521.792,757.621c0,0 41.458,90.958 84.208,100.75c42.75,9.792 78.208,-145.083 35.458,-154.875c-42.75,-9.792 -119.667,54.083 -119.667,54.083l0,0.042Z" style="fill:#a1520f;fill-rule:nonzero;stroke:#fff;stroke-width:25px;"/></g><path d="M476.417,750.059c5.016,-25.732 27.303,-43.072 49.739,-38.699c22.436,4.373 36.579,28.815 31.564,54.546c-5.016,25.732 -27.303,43.072 -49.739,38.699c-22.436,-4.373 -36.579,-28.815 -31.564,-54.546Z" style="fill:#a1520f;stroke:#fff;stroke-width:25px;"/></g><path d="M144.594,386.64c26.011,-6.97 51.749,4.612 57.439,25.848c5.69,21.236 -10.808,44.135 -36.82,51.104c-26.011,6.97 -51.749,-4.612 -57.439,-25.848c-5.69,-21.236 10.808,-44.135 36.82,-51.104Z" style="fill:#fff;"/><path d="M186.583,525.454c73.5,61.542 185.625,-28.833 276.125,11.875" style="fill:none;fill-rule:nonzero;stroke:#fff;stroke-width:16.67px;"/></g></g></g></g></g></g></svg>