<?xml version="1.0" encoding="UTF-8" standalone="no"?>
<!DOCTYPE svg PUBLIC "-//W3C//DTD SVG 1.1//EN" "http://www.w3.org/Graphics/SVG/1.1/DTD/svg11.dtd">
<svg width="100%" height="100%" viewBox="0 0 3000 3000" version="1.1" xmlns="http://www.w3.org/2000/svg" xmlns:xlink="http://www.w3.org/1999/xlink" xml:space="preserve" xmlns:serif="http://www.serif.com/" style="fill-rule:evenodd;clip-rule:evenodd;stroke-linejoin:round;stroke-miterlimit:2;">
    <g id="Artboard1" transform="matrix(1,0,0,1,-5,-3)">
        <rect x="5" y="3" width="3000" height="3000" style="fill:none;"/>
        <clipPath id="_clip1">
            <rect x="5" y="3" width="3000" height="3000"/>
        </clipPath>
        <g clip-path="url(#_clip1)">
            <g transform="matrix(1.089463,0,0,1.089463,-122.526162,-135.735961)">
                <g transform="matrix(-15.420548,0,0,15.420548,8149.581063,-4140.825897)">
                    <rect x="48.971" y="232.817" width="500.882" height="375.48" style="fill:rgb(1,20,49);"/>
                </g>
                <g transform="matrix(15.420548,0,0,15.420548,1621.383217,809.936284)">
                    <path d="M0,10.765C-0.691,10.765 -1.371,10.436 -1.793,9.823C-5.721,4.117 -11.502,7.279 -12.148,7.658C-13.18,8.265 -14.513,7.925 -15.124,6.897C-15.735,5.868 -15.405,4.541 -14.379,3.925C-11.001,1.895 -3.275,0 1.79,7.357C2.47,8.346 2.221,9.7 1.231,10.381C0.855,10.64 0.425,10.765 0,10.765" style="fill:white;fill-rule:nonzero;"/>
                </g>
                <g transform="matrix(15.420548,0,0,15.420548,1154.169923,3218.163204)">
                    <path d="M0,-151.663C-0.002,-151.66 -0.004,-151.658 -0.005,-151.655C-0.004,-151.657 -0.002,-151.66 0,-151.663M59.552,19.094C59.419,19.094 59.285,19.086 59.151,19.071C47.682,17.809 31.711,7.341 22.791,-4.759C12.705,-18.444 9.246,-34.491 13.052,-49.946C18.473,-71.959 18.913,-85.496 14.397,-91.332C10.552,-96.301 2.418,-96.4 -7.88,-96.526C-11.994,-96.577 -16.248,-96.629 -20.729,-96.996C-38.587,-98.462 -49.398,-114.07 -52.017,-123.564C-53.333,-128.334 -52.477,-130.959 -51.217,-132.401C-49.686,-134.835 -45.067,-136.393 -30.027,-140.082C-27.58,-140.682 -25.049,-141.302 -24.406,-141.536C-23.859,-141.735 -23.031,-142.022 -22.002,-142.38C-5.732,-148.027 -1.015,-150.588 0.049,-151.744C5.288,-160.297 12.192,-168.711 33.134,-169.758C53.083,-170.757 65.26,-168.078 71.445,-161.332C74.306,-158.21 75.758,-155.374 77.039,-152.872C78.241,-150.523 79.19,-148.668 81.116,-146.935C82.426,-145.756 84.148,-144.528 85.971,-143.228C90.767,-139.809 95.725,-136.273 96.215,-131.377C96.867,-124.859 85.76,-100.899 75.209,-91.307C72.071,-88.455 60.849,-79.57 48.201,-84.99C47.547,-85.27 32.217,-92.079 34.697,-111.914C35.41,-117.626 37.676,-122.548 39.867,-127.308C43.858,-135.979 47.01,-142.828 40.882,-152.686C39.826,-154.385 40.347,-156.62 42.047,-157.677C43.747,-158.734 45.982,-158.213 47.039,-156.512C55.226,-143.341 50.564,-133.213 46.452,-124.277C44.401,-119.822 42.464,-115.614 41.889,-111.015C40.079,-96.532 50.607,-91.845 51.056,-91.653C53.25,-90.712 61.123,-88.297 70.334,-96.671C80.093,-105.543 89.154,-127.115 89,-130.681C88.84,-132.28 84.41,-135.439 81.763,-137.326C79.856,-138.686 77.883,-140.093 76.267,-141.547C73.347,-144.175 71.944,-146.917 70.586,-149.569C69.41,-151.866 68.3,-154.035 66.102,-156.434C61.614,-161.328 50.646,-163.375 33.496,-162.519C15.976,-161.643 10.759,-155.368 6.18,-147.875C4.241,-144.702 -2.512,-141.472 -19.625,-135.532C-20.612,-135.189 -21.405,-134.914 -21.93,-134.723C-22.897,-134.372 -24.779,-133.905 -28.3,-133.042C-32.573,-131.994 -42.156,-129.644 -45.017,-128.248L-45.07,-128.051L-45.441,-127.786C-45.421,-126.125 -44.168,-121.551 -40.376,-116.371C-37.324,-112.203 -30.635,-105.083 -20.137,-104.221C-15.906,-103.874 -11.781,-103.823 -7.792,-103.774C3.978,-103.631 14.142,-103.506 20.13,-95.768C26.253,-87.855 26.241,-73.188 20.09,-48.212C16.808,-34.885 19.84,-20.981 28.626,-9.061C37.287,2.69 51.626,10.951 59.943,11.866C61.933,12.085 63.368,13.876 63.15,15.865C62.945,17.72 61.375,19.094 59.552,19.094" style="fill:white;fill-rule:nonzero;"/>
                </g>
                <g transform="matrix(0,-15.420548,-15.420548,0,1469.387505,982.293287)">
                    <path d="M-4.155,-4.155C-6.449,-4.155 -8.308,-2.295 -8.308,-0.001C-8.308,2.295 -6.449,4.155 -4.155,4.155C-1.861,4.155 -0.001,2.295 -0.001,-0.001C-0.001,-2.295 -1.861,-4.155 -4.155,-4.155" style="fill:white;fill-rule:nonzero;"/>
                </g>
                <g transform="matrix(15.420548,0,0,15.420548,5887.918739,1567.860825)">
                    <path d="M0,167.988C-1.954,167.988 -4.135,167.924 -6.54,167.794L-6.755,167.777C-7.172,167.729 -7.602,167.702 -8.034,167.673C-10.5,167.508 -14.227,167.259 -16.302,163.737L-16.44,163.5L-16.542,163.246C-17.892,159.879 -16.971,155.648 -13.726,150.311C-8.838,142.271 0.32,141.068 0.707,141.02C2.701,140.779 4.502,142.193 4.743,144.179C4.985,146.159 3.583,147.96 1.607,148.213C1.514,148.226 -4.51,149.105 -7.533,154.076C-9.478,157.276 -9.937,159.233 -9.89,160.14C-9.406,160.316 -8.267,160.392 -7.551,160.441C-7.044,160.474 -6.54,160.509 -6.05,160.562C1.801,160.978 6.136,160.586 7.575,160.079C9.943,159.244 13.572,153.265 16.007,139.164C17.992,127.664 18.064,117.489 17.654,115.865C16.992,113.231 14.325,110.108 11.501,106.802C9.109,104.001 6.636,101.105 4.831,97.9C1.036,91.438 -0.719,83.405 -2.267,76.317C-2.706,74.305 -3.121,72.404 -3.568,70.588C-18.901,8.255 -85,19.268 -124.492,25.848C-130.364,26.826 -135.435,27.671 -139.736,28.172C-178.894,32.731 -204.605,25.589 -216.159,6.944C-217.213,5.243 -216.689,3.009 -214.987,1.954C-213.285,0.9 -211.052,1.425 -209.998,3.126C-200.054,19.173 -176.698,25.178 -140.574,20.972C-136.451,20.492 -131.461,19.66 -125.683,18.698C-86.466,12.163 -13.467,0 3.471,68.857C3.941,70.765 4.365,72.711 4.815,74.77C6.32,81.661 7.876,88.786 11.097,94.254L11.134,94.32C12.592,96.918 14.84,99.55 17.013,102.095C20.404,106.065 23.607,109.815 24.684,114.096C25.634,117.869 24.917,130.16 23.15,140.397C20.481,155.854 16.052,164.776 9.985,166.915C7.958,167.629 4.611,167.988 0,167.988" style="fill:white;fill-rule:nonzero;"/>
                </g>
                <g transform="matrix(15.420548,0,0,15.420548,2378.840515,2715.214333)">
                    <path d="M0,93.462C-2.901,93.462 -5.331,93.371 -5.821,93.352C-7.695,93.351 -13.501,93.033 -15.706,89.288L-15.845,89.052L-15.947,88.798C-17.303,85.415 -16.381,81.182 -13.127,75.857C-9.419,69.787 -2.217,67.631 -1.408,67.404C0.521,66.868 2.519,67.993 3.058,69.92C3.595,71.844 2.475,73.839 0.554,74.383C0.433,74.418 -4.691,75.952 -6.942,79.635C-8.793,82.666 -9.296,84.585 -9.299,85.549C-8.495,85.869 -6.878,86.11 -5.769,86.103L-5.685,86.103L-5.6,86.106C-5.542,86.109 0.252,86.346 4.809,86.103C9.025,85.879 9.025,85.879 10.776,83.74L11,83.491C10.997,83.492 13.445,80.719 14.545,74.028C14.748,72.793 14.988,71.303 15.252,69.667C15.937,65.406 16.791,60.101 17.553,55.845C18.985,47.849 19.364,46.5 21.421,45.602L23.235,44.81L24.094,45.367C48.587,46.799 70.043,43.555 91.533,35.181C103.844,30.383 114.533,23.659 123.964,17.727C128.362,14.96 132.515,12.347 136.495,10.136C152.444,1.276 166.191,0 174.212,6.635C175.138,7.401 176.263,8.612 177.82,10.29C183.552,16.465 194.221,27.958 212.297,36.721C224.566,42.669 233.291,56.665 232.59,69.277C232.479,71.276 230.76,72.808 228.771,72.695C226.772,72.584 225.242,70.874 225.353,68.875C225.892,59.172 218.768,47.913 209.135,43.243C189.834,33.887 178.131,21.28 172.507,15.221C171.242,13.859 170.15,12.682 169.592,12.22C164.076,7.66 153.021,9.247 140.015,16.473C136.208,18.588 132.135,21.15 127.824,23.862C118.119,29.967 107.119,36.887 94.165,41.935C72.214,50.488 50.33,53.929 25.526,52.704C24.636,56.981 23.184,65.999 22.408,70.82C22.143,72.464 21.902,73.963 21.698,75.204C20.324,83.558 17.121,87.53 16.312,88.421C12.884,92.576 10.646,93.051 5.194,93.342C3.494,93.432 1.669,93.462 0,93.462" style="fill:white;fill-rule:nonzero;"/>
                </g>
                <g transform="matrix(15.420548,0,0,15.420548,1436.375197,1996.672329)">
                    <path d="M0,8.12C0,8.12 -13.38,19.233 -20.82,17.53C-28.259,15.826 -22.091,-11.113 -14.652,-9.41C-7.213,-7.707 0,8.12 0,8.12" style="fill:rgb(161,82,15);fill-rule:nonzero;"/>
                </g>
                <g transform="matrix(15.420548,0,0,15.420548,1200.191006,2218.015785)">
                    <path d="M0,-21.664C-1.502,-21.664 -4.333,-17.84 -5.879,-11.087C-7.489,-4.054 -6.463,0.725 -5.018,1.056C-0.76,2.029 7.514,-2.918 12.609,-6.853C9.734,-12.614 4.435,-20.67 0.179,-21.645C0.122,-21.658 0.062,-21.664 0,-21.664M-3.877,5.521C-4.607,5.521 -5.313,5.45 -5.989,5.295C-11.671,3.994 -11.765,-4.865 -10.119,-12.057C-8.472,-19.249 -4.528,-27.185 1.15,-25.884C9.398,-23.995 16.511,-8.856 17.295,-7.136L17.984,-5.623L16.706,-4.561C15.37,-3.452 4.31,5.521 -3.877,5.521" style="fill:white;fill-rule:nonzero;"/>
                </g>
                <g transform="matrix(15.420548,0,0,15.420548,1469.504701,2254.685847)">
                    <path d="M0,-8.12C0,-8.12 7.213,7.707 14.652,9.41C22.091,11.113 28.259,-15.826 20.82,-17.53C13.38,-19.233 0,-8.12 0,-8.12" style="fill:rgb(161,82,15);fill-rule:nonzero;"/>
                </g>
                <g transform="matrix(15.420548,0,0,15.420548,1511.248124,2218.088262)">
                    <path d="M0,-5.127C2.875,0.633 8.174,8.69 12.43,9.664C13.044,9.805 13.769,9.191 14.27,8.651C17.882,4.763 20.404,-6.251 18.843,-11.324C18.626,-12.028 18.24,-12.896 17.627,-13.036C13.369,-14.009 5.095,-9.062 0,-5.127M12.636,14.037C12.206,14.037 11.811,13.984 11.46,13.904C3.211,12.015 -3.902,-3.125 -4.686,-4.845L-5.375,-6.358L-4.096,-7.419C-2.642,-8.627 10.345,-19.164 18.598,-17.276C20.052,-16.943 21.997,-15.862 23,-12.603C25.01,-6.07 22.109,6.604 17.456,11.612C15.695,13.507 13.991,14.037 12.636,14.037" style="fill:white;fill-rule:nonzero;"/>
                </g>
                <g transform="matrix(2.9495,-15.135843,-15.135843,-2.9495,1498.120587,2027.172194)">
                    <path d="M-7.074,-5.829C-11.637,-5.828 -15.336,-2.602 -15.336,1.378C-15.336,5.359 -11.637,8.586 -7.074,8.586C-2.512,8.585 1.188,5.359 1.188,1.379C1.187,-2.602 -2.511,-5.829 -7.074,-5.829" style="fill:rgb(161,82,15);fill-rule:nonzero;"/>
                </g>
                <g transform="matrix(15.420548,0,0,15.420548,1461.953259,2210.741913)">
                    <path d="M0,-11.277C-2.439,-11.277 -4.722,-9.157 -5.3,-6.187C-5.622,-4.537 -5.372,-2.892 -4.598,-1.555C-3.88,-0.314 -2.789,0.504 -1.525,0.75C-0.263,0.995 1.058,0.648 2.189,-0.232C3.408,-1.181 4.257,-2.612 4.579,-4.262C4.9,-5.912 4.651,-7.557 3.877,-8.894C3.159,-10.134 2.067,-10.953 0.803,-11.199C0.535,-11.252 0.267,-11.277 0,-11.277M-0.708,5.179C-1.257,5.179 -1.808,5.126 -2.357,5.019C-4.872,4.529 -7.005,2.969 -8.362,0.625C-9.663,-1.622 -10.092,-4.337 -9.569,-7.019C-8.468,-12.667 -3.444,-16.456 1.635,-15.468C4.151,-14.978 6.283,-13.417 7.64,-11.073C8.942,-8.827 9.37,-6.112 8.848,-3.43C8.325,-0.748 6.909,1.607 4.859,3.201C3.188,4.501 1.257,5.179 -0.708,5.179" style="fill:white;fill-rule:nonzero;"/>
                </g>
                <g transform="matrix(-3.991441,-14.895022,-14.895022,3.991441,419.904815,1124.208098)">
                    <path d="M-8.2,-10.687C-12.029,-10.687 -15.133,-6.886 -15.132,-2.198C-15.133,2.491 -12.029,6.292 -8.2,6.292C-4.371,6.292 -1.268,2.491 -1.268,-2.197C-1.268,-6.886 -4.372,-10.687 -8.2,-10.687" style="fill:white;fill-rule:nonzero;"/>
                </g>
                <g transform="matrix(15.420548,0,0,15.420548,750.321202,1463.971054)">
                    <path d="M0,8.063C-4.527,8.063 -8.835,7.036 -12.609,3.876C-13.223,3.362 -13.304,2.448 -12.79,1.834C-12.275,1.22 -11.362,1.139 -10.747,1.653C-4.483,6.899 3.798,5.201 12.567,3.403C20.723,1.73 29.158,0 36.953,3.508C37.683,3.837 38.008,4.695 37.68,5.425C37.351,6.155 36.493,6.482 35.763,6.152C28.824,3.03 20.856,4.664 13.149,6.243C8.75,7.146 4.277,8.063 0,8.063" style="fill:white;fill-rule:nonzero;"/>
                </g>
            </g>
        </g>
    </g>
</svg>
